<?xml version="1.0" encoding="iso-8859-1"?>
<!-- Generator: Adobe Illustrator 19.0.0, SVG Export Plug-In . SVG Version: 6.00 Build 0)  -->
<svg version="1.1" id="Capa_1" xmlns="http://www.w3.org/2000/svg" xmlns:xlink="http://www.w3.org/1999/xlink" x="0px" y="0px"
	 viewBox="0 0 464.005 464.005" style="enable-background:new 0 0 464.005 464.005;" xml:space="preserve">
<path style="fill:#00F2A9;" d="M424.005,232.002h-352l-32-64h-32l32,96l-32,96h32l32-64h352c17.68,0,32-14.32,32-32
	c0-8.8-3.6-16.8-9.36-22.64C440.805,235.602,432.805,232.002,424.005,232.002z"/>
<g>
	<path style="fill:#322153;" d="M424.005,192.002h-90.24l-17.592-52.776c12.216-6.728,19.832-19.88,19.832-35.224
		c0-10.584-4.144-20.624-11.744-28.336c-7.632-7.52-17.672-11.664-28.256-11.664h-4.904L271.589,5.474
		c-1.088-3.272-4.136-5.472-7.584-5.472h-64c-4.424,0-8,3.576-8,8v56h-16c-8.824,0-16,7.176-16,16c0,2.512,1.184,4.888,3.2,6.4
		c5.584,4.192,8.8,10.608,8.8,17.6c0,6.992-3.208,13.408-8.8,17.6c-2.016,1.512-3.2,3.888-3.2,6.4c0,8.824,7.176,16,16,16h16v48
		H76.949l-29.792-59.576c-1.352-2.712-4.12-4.424-7.152-4.424h-32c-2.568,0-4.984,1.232-6.496,3.32
		c-1.504,2.088-1.912,4.776-1.096,7.208l31.16,93.472L0.421,325.474c-0.824,2.44-0.408,5.128,1.096,7.208
		c1.504,2.088,3.92,3.32,6.488,3.32h32c3.032,0,5.8-1.712,7.16-4.424l29.784-59.576h115.056v48h-16c-8.824,0-16,7.176-16,16
		c0,2.512,1.184,4.888,3.2,6.4c5.584,4.192,8.8,10.608,8.8,17.6s-3.208,13.408-8.8,17.6c-2.016,1.512-3.2,3.888-3.2,6.4
		c0,8.824,7.176,16,16,16h16v56c0,4.424,3.576,8,8,8h64c3.448,0,6.496-2.2,7.584-5.472l19.512-58.528h4.904
		c10.584,0,20.624-4.144,28.336-11.744c7.52-7.632,11.664-17.672,11.664-28.256c0-8.672-2.392-16.76-6.832-23.272
		c-3.336-5.08-7.76-9.136-12.976-11.992l17.576-52.736h90.232c22.056,0,40-17.944,40-40c0-10.584-4.144-20.624-11.744-28.336
		C444.629,196.146,434.589,192.002,424.005,192.002z M313.029,376.946c-4.504,4.44-10.376,6.928-16.56,7.048l14.536-43.616
		c1.872,1.424,3.504,3.176,4.864,5.248c2.704,3.96,4.136,8.936,4.136,14.376C320.005,366.362,317.501,372.41,313.029,376.946z
		 M296.461,80.01c6.192,0.112,12.064,2.6,16.496,6.968c4.544,4.616,7.048,10.664,7.048,17.024c0,8.328-3.336,15.376-9.024,19.64
		L296.461,80.01z M179.501,128.002c5.48-6.688,8.504-15.08,8.504-24s-3.032-17.312-8.504-24h12.504v48H179.501z M208.005,136.002
		v-64v-56h50.232l36.2,108.6l4.128,12.408c0,0.008,0.016,0.024,0.016,0.032l18.32,54.96H208.005V136.002z M179.501,384.002
		c5.48-6.688,8.504-15.08,8.504-24s-3.032-17.312-8.504-24h12.504v48H179.501z M258.237,448.002h-50.232v-56v-64v-56h108.904
		L258.237,448.002z M424.005,256.002h-96h-128h-128c-3.032,0-5.8,1.712-7.16,4.424l-29.784,59.576H19.109l28.488-85.472
		c0.552-1.64,0.552-3.424,0-5.064l-28.488-85.464h15.952l29.792,59.576c1.352,2.712,4.12,4.424,7.152,4.424h128h128h96
		c6.36,0,12.408,2.504,16.944,6.976c4.552,4.616,7.056,10.664,7.056,17.024C448.005,245.234,437.237,256.002,424.005,256.002z"/>
	<path style="fill:#322153;" d="M424.005,224.002h-32c-4.424,0-8,3.576-8,8c0,4.424,3.576,8,8,8h32c4.424,0,8-3.576,8-8
		S428.429,224.002,424.005,224.002z"/>
	<path style="fill:#322153;" d="M264.005,96.002h-32c-4.424,0-8,3.576-8,8c0,4.424,3.576,8,8,8h32c4.424,0,8-3.576,8-8
		S268.429,96.002,264.005,96.002z"/>
	<path style="fill:#322153;" d="M232.005,368.002h32c4.424,0,8-3.576,8-8s-3.576-8-8-8h-32c-4.424,0-8,3.576-8,8
		S227.581,368.002,232.005,368.002z"/>
</g>
<g>
</g>
<g>
</g>
<g>
</g>
<g>
</g>
<g>
</g>
<g>
</g>
<g>
</g>
<g>
</g>
<g>
</g>
<g>
</g>
<g>
</g>
<g>
</g>
<g>
</g>
<g>
</g>
<g>
</g>
</svg>
