<?xml version="1.0" encoding="iso-8859-1"?>
<!-- Generator: Adobe Illustrator 19.0.0, SVG Export Plug-In . SVG Version: 6.00 Build 0)  -->
<svg version="1.1" id="Capa_1" xmlns="http://www.w3.org/2000/svg" xmlns:xlink="http://www.w3.org/1999/xlink" x="0px" y="0px"
	 viewBox="0 0 512 512" style="enable-background:new 0 0 512 512;" xml:space="preserve">
<polygon style="fill:#FF456D;" points="302.067,305.101 355.639,358.673 375.703,338.608 306.112,269.016 302.067,269.016 
	227.464,269.016 223.418,269.016 153.826,338.608 173.891,358.673 227.464,305.101 227.464,319.448 227.464,373.061 203.23,497.518 
	232.522,503.221 254.493,396.863 275.037,396.863 297.008,503.221 326.298,497.518 302.067,373.065 302.067,319.448 "/>
<g>
	<polygon style="fill:#FF0C38;" points="223.196,497.518 247.429,373.061 247.429,305.101 227.464,325.065 227.464,373.061 
		203.23,497.518 232.522,503.221 233.294,499.484 	"/>
	<polygon style="fill:#FF0C38;" points="173.792,338.608 243.384,269.016 223.418,269.016 153.826,338.608 173.891,358.673 
		183.874,348.69 	"/>
	<polygon style="fill:#FF0C38;" points="295.003,396.863 275.037,396.863 297.008,503.221 316.2,499.484 	"/>
	<polygon style="fill:#FF0C38;" points="322.031,305.101 322.031,325.066 355.639,358.673 365.622,348.69 	"/>
</g>
<g>
	<path style="fill:#45A2FF;" d="M479.196,410.165h-32.34l-5.453-16.147c-4.788-3.437-8.228-5.906-13.016-9.343h-21.94
		c-4.788,3.437-8.228,5.906-13.016,9.343l-5.453,16.147h-15.931c-6.408,6.408-10.001,10.001-16.409,16.409v24.313h139.966v-24.313
		C489.196,420.166,485.603,416.573,479.196,410.165z"/>
	<path style="fill:#45A2FF;" d="M26.585,333.625h20.082l3.386-10.027c2.973-2.134,5.109-3.667,8.082-5.801h13.624
		c2.973,2.134,5.109,3.667,8.082,5.801l3.386,10.027h9.893c3.979,3.979,6.21,6.21,10.189,10.189v15.097H16.396v-15.097
		C20.375,339.836,22.606,337.605,26.585,333.625z"/>
</g>
<path style="fill:#ADDFBB;" d="M466.542,188.386c-48.362-57.447-120.809-93.949-201.78-93.949s-153.417,36.502-201.78,93.949
	l-0.001-0.001C73.986,86.676,160.127,7.5,264.761,7.5s190.777,79.177,201.781,180.885L466.542,188.386z"/>
<g>
	<path style="fill:#7CCC92;" d="M287.749,8.798C280.203,7.947,272.535,7.5,264.761,7.5C160.127,7.5,73.986,86.676,62.98,188.385
		l0.001,0.001c16.843-20.006,36.612-37.462,58.639-51.731C148.481,67.887,211.758,17.365,287.749,8.798z"/>
	<path style="fill:#7CCC92;" d="M310.737,94.436c-7.746,0-15.412,0.34-22.988,0.994c71.623,6.187,135.057,41.003,178.793,92.955
		l0.001-0.001c-1.954-18.062-6.289-35.406-12.665-51.73C412.655,109.951,363.51,94.436,310.737,94.436z"/>
</g>
<circle style="fill:#FFC477;" cx="264.765" cy="225.976" r="43.039"/>
<path style="fill:#FFA733;" d="M247.322,225.976c0-19.314,12.721-35.656,30.241-41.105c-4.043-1.258-8.342-1.935-12.799-1.935
	c-23.771,0-43.04,19.27-43.04,43.04s19.27,43.04,43.04,43.04c4.457,0,8.756-0.677,12.799-1.935
	C260.042,261.631,247.322,245.29,247.322,225.976z"/>
<rect x="227.466" y="344.284" style="fill:#D8D7DA;" width="74.599" height="28.778"/>
<rect x="227.466" y="344.284" style="fill:#ACABB1;" width="24.826" height="28.778"/>
<path style="fill:#45A2FF;" d="M306.099,213.982c-5.195-17.932-21.728-31.046-41.334-31.046c-19.606,0-36.138,13.115-41.333,31.046
	c-1.103,3.809-1.707,7.83-1.707,11.994c0,7.212,1.783,14.004,4.918,19.975h2.621c6.224,0,11.269-5.045,11.269-11.269v-12.713
	c0-2.743,2.224-4.966,4.966-4.966h38.533c2.743,0,4.966,2.224,4.966,4.966v12.713c0,6.224,5.045,11.269,11.269,11.269h2.621
	c3.135-5.971,4.918-12.763,4.918-19.975C307.805,221.811,307.202,217.79,306.099,213.982z"/>
<g>
	<path style="fill:#2488FF;" d="M242.423,218.097c0.26-1.396,0.584-2.77,0.974-4.115c4.284-14.788,16.281-26.291,31.351-29.873
		c-3.204-0.762-6.545-1.173-9.983-1.173c-19.606,0-36.138,13.115-41.333,31.046c-1.103,3.809-1.707,7.83-1.707,11.994
		c0,7.212,1.783,14.004,4.918,19.975h2.621c6.224,0,11.269-5.045,11.269-11.269v-12.713
		C240.532,220.394,241.279,219.007,242.423,218.097z"/>
	<path style="fill:#2488FF;" d="M303.998,217.002h-19.966c2.743,0,4.966,2.224,4.966,4.966v12.713
		c0,6.224,5.045,11.269,11.269,11.269h2.621c3.135-5.971,4.918-12.763,4.918-19.975c0-2.693-0.256-5.324-0.732-7.879
		C306.225,217.422,305.166,217.002,303.998,217.002z"/>
</g>
<rect x="227.466" y="269.015" style="fill:#D8D7DA;" width="24.826" height="75.269"/>
<rect x="227.466" y="269.015" style="fill:#ACABB1;" width="12.413" height="75.269"/>
<rect x="277.235" y="269.015" style="fill:#D8D7DA;" width="24.826" height="75.269"/>
<rect x="277.235" y="269.015" style="fill:#ACABB1;" width="12.413" height="75.269"/>
<g>
	<path style="fill:#1D1D1F;" d="M482.303,402.665H452.24l-4.503-13.333L430.8,377.175h-26.766l-16.937,12.157l-4.503,13.333h-13.655
		l-20.803,20.803v34.918h154.966v-34.918L482.303,402.665z M488.104,443.386H363.139V429.68l12.016-12.016h18.208l6.403-18.962
		l9.096-6.528h17.114l9.096,6.529l6.403,18.961h34.616l12.016,12.016v13.706H488.104z"/>
	<path style="fill:#1D1D1F;" d="M88.608,326.125l-2.436-7.212l-12.002-8.616h-18.45l-12.003,8.615l-2.436,7.213H23.479
		L8.896,340.708v25.704h101.912v-25.704l-14.583-14.583L88.608,326.125L88.608,326.125z M95.807,351.412H23.896v-4.491l5.796-5.796
		h22.358l4.336-12.841l4.162-2.987h8.797l4.162,2.987l4.336,12.841H90.01l5.796,5.796v4.491H95.807z"/>
	<path style="fill:#1D1D1F;" d="M72.221,189.17c11.014-12.548,23.105-23.882,36.084-33.906l40.503,154.752l14.511-3.798
		l-41.978-160.388c14.598-9.876,30.149-18.19,46.406-24.84l-5.306,175.251l14.993,0.454l5.492-181.369
		c26.056-8.775,53.647-13.39,81.837-13.39c28.191,0,55.785,4.615,81.843,13.392l5.492,181.367l14.993-0.454l-5.307-175.248
		c16.257,6.651,31.808,14.965,46.406,24.841l-41.978,160.384l14.511,3.798l40.502-154.748c12.979,10.025,25.07,21.359,36.083,33.906
		l-78.204,129.318l12.836,7.762l82.334-136.149L474,187.578c-5.547-51.269-29.77-98.624-68.209-133.343
		C367.07,19.262,316.984,0,264.762,0s-102.307,19.262-141.03,54.236C85.295,88.954,61.071,136.311,55.525,187.58l-0.273,2.519
		l82.339,136.156l12.836-7.762L72.221,189.17z M264.762,15c91.649,0,169.45,62.847,190.117,149.747
		c-50.538-49.73-118.514-77.811-190.117-77.811c-57.856,0-113.34,18.342-159.175,51.616c7.201-15.89,16.784-30.758,28.366-43.841
		l-11.231-9.942c-18.431,20.82-32.215,45.8-39.987,72.36c-2.739,2.484-5.444,5.014-8.09,7.617C95.311,77.847,173.113,15,264.762,15z
		"/>
	<path style="fill:#1D1D1F;" d="M309.567,323.206l46.072,46.072l30.671-30.67l-76.755-76.754v-0.338h-8.898
		c9.048-9.137,14.648-21.696,14.648-35.54c0-27.869-22.672-50.54-50.54-50.54s-50.54,22.672-50.54,50.54
		c0,13.845,5.599,26.404,14.648,35.54h-8.909v0.348l-76.743,76.744l30.67,30.67l46.072-46.072v27.967h-26.073v15h26.073v6.166
		l-25.528,131.108l43.93,8.554l22.235-107.637h8.327L291.163,512l43.931-8.554l-25.528-131.104v-6.17h26.073v-15h-26.073
		L309.567,323.206L309.567,323.206z M294.567,365.562h-59.603v-13.778h59.603V365.562z M269.73,276.516v60.268h-9.942v-60.268
		H269.73z M290.362,250.594c-6.47,6.725-15.55,10.923-25.597,10.923c-10.047,0-19.127-4.198-25.597-10.923
		c5.311-3.319,8.863-9.202,8.863-15.913v-10.179h33.466v10.179C281.498,241.393,285.05,247.276,290.362,250.594z M294.556,336.784
		h-9.826v-60.268h9.826V336.784z M365.097,338.608l-9.458,9.458l-46.082-46.082v-18.917L365.097,338.608z M264.765,190.436
		c19.597,0,35.54,15.944,35.54,35.54c0,4.166-0.727,8.164-2.05,11.881c-1.053-0.669-1.758-1.839-1.758-3.176v-12.713
		c0-6.874-5.592-12.466-12.466-12.466h-38.534c-6.874,0-12.466,5.592-12.466,12.466v12.713c0,1.337-0.705,2.507-1.758,3.176
		c-1.323-3.718-2.05-7.716-2.05-11.881C229.225,206.379,245.168,190.436,264.765,190.436z M173.892,348.066l-9.458-9.458
		l55.53-55.531v18.917L173.892,348.066z M234.963,276.516h9.826v60.268h-9.826V276.516z M317.503,491.59l-14.652,2.853
		l-21.706-105.08h-32.762l-21.707,105.08l-14.652-2.853l21.618-111.028h62.242L317.503,491.59z"/>
</g>
<path style="fill:#FFFFFF;" d="M407.732,119.322c-13.339-23.667-32.691-43.6-55.964-57.644l7.75-12.843
	c25.484,15.378,46.675,37.205,61.282,63.122L407.732,119.322z M343.451,56.998c-4.212-2.205-8.576-4.24-12.969-6.049l5.712-13.87
	c4.814,1.983,9.596,4.213,14.212,6.629L343.451,56.998z M321.552,47.587c-4.495-1.538-9.118-2.885-13.739-4.004l3.532-14.578
	c5.065,1.228,10.132,2.704,15.06,4.389L321.552,47.587z"/>
<g>
</g>
<g>
</g>
<g>
</g>
<g>
</g>
<g>
</g>
<g>
</g>
<g>
</g>
<g>
</g>
<g>
</g>
<g>
</g>
<g>
</g>
<g>
</g>
<g>
</g>
<g>
</g>
<g>
</g>
</svg>
